PathFileType	4	(X/Y/Z)	Walk3.trc
DataRate	CameraRate	NumFrames	NumMarkers	Units	OrigDataRate	OrigDataStartFrame	OrigNumFrames
200.000000	200.000000	4	60	mm	200.000000	594	799
Frame#	Times		LToe		RCAR		RWRU		LLFC		RWRR		LFA1		RACR1		LUA1		STRN		LACR1		LElbow		RTH3		RLFC		LCAR		RFA1		RTB2		RToe		RFHD		RMT1		RMFC		LWRU		RTH2		RTB3		RMT5		LPSI		C7		LWRR		RPSI		RTB1		LTB1		RCAL		LTH3		LFHD		RTB4		LTB4		RASI		LTH4		RMMAL		LMT1		RLMAL		CLAV		LMFC		LTH2		LBHD		RBHD		RElbow		LTB2		LTB3		RUA1		RBack		LMMAL		RTH4		T10		LTH1		LCAL		RTH1		LMT5		LElbowM		RElbowM		LLMAL
			X1	Y1	Z1	X2	Y2	Z2	X3	Y3	Z3	X4	Y4	Z4	X5	Y5	Z5	X6	Y6	Z6	X7	Y7	Z7	X8	Y8	Z8	X9	Y9	Z9	X10	Y10	Z10	X11	Y11	Z11	X12	Y12	Z12	X13	Y13	Z13	X14	Y14	Z14	X15	Y15	Z15	X16	Y16	Z16	X17	Y17	Z17	X18	Y18	Z18	X19	Y19	Z19	X20	Y20	Z20	X21	Y21	Z21	X22	Y22	Z22	X23	Y23	Z23	X24	Y24	Z24	X25	Y25	Z25	X26	Y26	Z26	X27	Y27	Z27	X28	Y28	Z28	X29	Y29	Z29	X30	Y30	Z30	X31	Y31	Z31	X32	Y32	Z32	X33	Y33	Z33	X34	Y34	Z34	X35	Y35	Z35	X36	Y36	Z36	X37	Y37	Z37	X38	Y38	Z38	X39	Y39	Z39	X40	Y40	Z40	X41	Y41	Z41	X42	Y42	Z42	X43	Y43	Z43	X44	Y44	Z44	X45	Y45	Z45	X46	Y46	Z46	X47	Y47	Z47	X48	Y48	Z48	X49	Y49	Z49	X50	Y50	Z50	X51	Y51	Z51	X52	Y52	Z52	X53	Y53	Z53	X54	Y54	Z54	X55	Y55	Z55	X56	Y56	Z56	X57	Y57	Z57	X58	Y58	Z58	X59	Y59	Z59	X60	Y60	Z60

594	2.97	484.55	46.448	-32.498	481.41	884.68	417.33	415.64	911.59	415.03	471.56	540.67	-121.77	479.09	926.1	354.77	341.69	1062.2	-272.27	334.76	1510.4	241.32	300.76	1360.3	-214.34	453.48	1309.6	46.806	319.9	1543.6	-131.6	259.21	1192.9	-260.75	271.75	651.94	230.57	283.09	512.29	218.12	385.53	900.4	-288.83	408.59	1055.8	383.56	315.09	275.09	179.3	452.06	40.806	100.06	460.07	1724.3	124.72	401.98	52.655	87.157	274.15	509.14	68.636	311.98	932.12	-282.45	321.13	741.18	250.4	301	197.13	108.63	358.62	30.615	182.27	163.52	1079.1	-22.183	221.63	1569.4	65.139	391.8	938.11	-232.6	159.36	1078.6	87.311	325.55	366.91	127.65	472.44	397.83	-20.649	181.1	40.353	102.34	451.71	670.68	-150.27	461.58	1731.1	19.551	313.23	281.11	117.6	429.94	324.97	-12.994	374.16	1058.3	208.29	415.02	749.01	-163.4	271.58	104.65	54.822	434.79	68.766	-12.96	240.62	73.078	146.05	389.46	1482.7	41.606	500.85	541.1	13.324	466.52	776.06	-157.52	297.59	1701.9	-4.3182	291.53	1695.6	137.39	305.28	1170.5	370.37	442.2	311.69	-73.716	389.64	249.9	-5.9935	331.66	1331.3	320.64	168.07	1445.1	183.86	334.57	167.37	36.811	262.39	734.61	238.25	177.49	1212.8	36.756	378.5	827.96	-171.94	228.92	149.64	-9.071	254.44	821.97	249.69	384.71	67.745	-91.776	228.42	1165.8	-175.49	278.07	1138	282.89	293.88	150.15	-58.164
595	2.975	503.9	47.037	-33.38	489.88	886.01	416.81	423.88	912.37	414.7	478.95	540.98	-121.36	487.04	927.41	354.32	345.89	1062	-272.54	339.48	1510.5	241.3	305.15	1360	-214.34	458.21	1309.5	47.023	324.58	1543.3	-131.7	263.31	1192.6	-260.72	274.22	651.91	230.7	284.81	512.16	218.19	389.9	900.41	-289.37	415.64	1056.5	383.37	315.92	274.79	179.38	452.13	40.595	100.28	464.71	1724.2	124.5	402.13	52.628	87.132	276.14	509.08	68.714	316.29	931.79	-282.2	324.13	740.88	250.43	301.56	196.91	108.63	358.6	30.597	182.31	168.37	1079	-22.334	226.37	1569.2	65.049	396.59	938.13	-233.21	164	1078.6	87.136	326.78	366.61	127.76	482.38	397.7	-20.502	181.08	40.42	102.24	458.86	671.62	-150	466.24	1731	19.314	314.13	280.84	117.66	441.76	323.7	-13.232	378.26	1057.8	208.6	421.87	749.81	-163.35	271.68	104.51	54.645	453.47	67.886	-13.905	240.69	73.115	145.97	394.21	1482.6	41.599	506.93	541.5	13.903	473.19	777.15	-156.73	302.27	1701.7	-4.5573	296.2	1695.4	137.14	311.45	1170.5	370.53	454.72	310.84	-73.929	403.46	247.64	-6.5542	336.9	1331.4	320.78	172.84	1445	183.92	350.48	163.53	35.762	265.32	734.64	238.36	182.25	1212.7	36.741	384.93	828.56	-171.89	245.45	143.11	-10.573	257.82	822.05	249.77	403.77	65.838	-92.922	232.75	1165.5	-175.37	284.33	1137.8	283.04	310.55	145.54	-59.387
596	2.98	523.2	47.77	-34.293	498.32	887.34	416.26	432.1	913.12	414.31	486.18	541.2	-120.97	494.96	928.71	353.82	350.14	1061.7	-272.8	344.19	1510.5	241.26	309.58	1359.7	-214.35	462.95	1309.3	47.234	329.29	1542.9	-131.82	267.45	1192.3	-260.69	276.73	651.87	230.83	286.56	512.03	218.25	394.29	900.35	-289.88	422.67	1057.2	383.13	316.77	274.5	179.45	452.21	40.376	100.49	469.35	1724.2	124.26	402.28	52.596	87.101	278.15	509.02	68.786	320.64	931.44	-281.97	327.14	740.57	250.45	302.13	196.68	108.64	358.58	30.573	182.35	173.24	1078.9	-22.496	231.12	1569.1	64.946	401.4	938.1	-233.79	168.66	1078.5	86.952	328.03	366.3	127.87	492.22	397.52	-20.382	181.05	40.495	102.14	465.91	672.48	-149.74	470.9	1730.9	19.071	315.04	280.57	117.72	453.53	322.42	-13.502	382.36	1057.2	208.9	428.66	750.54	-163.3	271.78	104.39	54.461	472.15	67.134	-14.89	240.76	73.149	145.88	398.98	1482.4	41.584	512.87	541.75	14.475	479.8	778.16	-155.9	306.96	1701.4	-4.8074	300.87	1695.3	136.88	317.6	1170.5	370.65	467.16	310.03	-74.189	417.29	245.37	-7.1878	342.15	1331.5	320.89	177.63	1444.9	183.96	366.46	159.75	34.664	268.29	734.65	238.47	187.01	1212.5	36.694	391.31	829.11	-171.85	262.14	136.65	-12.146	261.23	822.12	249.84	422.86	64.073	-94.113	237.13	1165.2	-175.26	290.57	1137.6	283.15	327.32	141.01	-60.669
597	2.985	542.44	48.656	-35.221	506.73	888.65	415.66	440.3	913.86	413.88	493.25	541.32	-120.6	502.87	930	353.28	354.44	1061.5	-273.06	348.91	1510.5	241.21	314.06	1359.3	-214.37	467.7	1309.1	47.439	334.02	1542.5	-131.94	271.65	1191.9	-260.66	279.27	651.81	230.95	288.34	511.88	218.31	398.71	900.22	-290.36	429.68	1057.9	382.86	317.64	274.2	179.52	452.31	40.149	100.7	473.99	1724.1	124.02	402.44	52.557	87.067	280.19	508.95	68.847	325.03	931.05	-281.76	330.19	740.25	250.44	302.71	196.46	108.64	358.57	30.543	182.38	178.13	1078.7	-22.668	235.87	1568.9	64.827	406.21	938	-234.35	173.33	1078.4	86.759	329.3	365.98	127.96	501.97	397.29	-20.285	181.02	40.577	102.04	472.85	673.26	-149.48	475.57	1730.8	18.822	315.98	280.29	117.77	465.26	321.13	-13.801	386.48	1056.6	209.17	435.39	751.21	-163.26	271.87	104.27	54.273	490.82	66.52	-15.902	240.85	73.18	145.8	403.75	1482.2	41.56	518.66	541.84	15.037	486.32	779.07	-155.05	311.65	1701.2	-5.0678	305.54	1695.1	136.6	323.75	1170.4	370.75	479.52	309.27	-74.489	431.13	243.12	-7.8876	347.4	1331.5	320.97	182.42	1444.8	184	382.48	156.04	33.525	271.29	734.64	238.58	191.78	1212.3	36.614	397.65	829.61	-171.81	278.98	130.29	-13.786	264.67	822.17	249.91	441.97	62.457	-95.337	241.57	1164.8	-175.15	296.81	1137.3	283.24	344.19	136.59	-62.005
